<svg width="1024" height="1024" viewBox="0 0 1024 1024" xmlns="http://www.w3.org/2000/svg">
  <rect x="64" y="64" width="896" height="896" rx="210" fill="#fff"/>
  <path d="M322 512c78-124 170-124 268 0s190 124 268 0" fill="none" stroke="#111" stroke-width="58" stroke-linecap="round"/>
  <path d="M322 512c78 124 170 124 268 0s190-124 268 0" fill="none" stroke="#111" stroke-width="58" stroke-linecap="round"/>
  <circle cx="314" cy="512" r="43" fill="#111"/>
  <circle cx="512" cy="512" r="34" fill="#fff"/>
  <circle cx="512" cy="512" r="15" fill="#111"/>
  <circle cx="710" cy="512" r="43" fill="#111"/>
  <path d="M512 246v112M512 666v112M246 512H134M890 512H778" stroke="#111" stroke-width="34" stroke-linecap="round"/>
  <circle cx="512" cy="214" r="22" fill="#111"/>
  <circle cx="512" cy="810" r="22" fill="#111"/>
  <circle cx="102" cy="512" r="22" fill="#111"/>
  <circle cx="922" cy="512" r="22" fill="#111"/>
</svg>
