<svg width="1024" height="1024" viewBox="0 0 1024 1024" xmlns="http://www.w3.org/2000/svg">
  <rect x="64" y="64" width="896" height="896" rx="210" fill="#fff"/>
  <path d="M321 329c83-52 250-53 351 5 60 35 85 91 82 161l-10 196c-4 83-74 126-161 132l-162 11c-89 6-153-45-159-126l-14-192c-6-82 18-147 73-187Z" fill="none" stroke="#111" stroke-width="43" stroke-linecap="round" stroke-linejoin="round"/>
  <path d="M371 418c55-35 218-35 278 0" fill="none" stroke="#111" stroke-width="34" stroke-linecap="round"/>
  <circle cx="420" cy="540" r="34" fill="#111"/>
  <path d="M599 520c31-10 63 4 76 31" fill="none" stroke="#111" stroke-width="31" stroke-linecap="round"/>
  <path d="M440 655c48 29 112 28 158-1" fill="none" stroke="#111" stroke-width="32" stroke-linecap="round"/>
  <path d="M284 294l-54-54M728 294l60-54M512 250v-82" stroke="#111" stroke-width="32" stroke-linecap="round"/>
  <circle cx="512" cy="150" r="28" fill="#111"/>
</svg>
