<svg width="1024" height="1024" viewBox="0 0 1024 1024" xmlns="http://www.w3.org/2000/svg">
  <rect x="64" y="64" width="896" height="896" rx="210" fill="#fff"/>
  <path d="M250 543c17-127 127-233 267-239 135-5 252 78 287 199" fill="none" stroke="#111" stroke-width="42" stroke-linecap="round"/>
  <path d="M786 476l35 87 76-52" fill="none" stroke="#111" stroke-width="39" stroke-linecap="round" stroke-linejoin="round"/>
  <path d="M774 569c-27 122-139 218-277 218-133 0-247-84-286-201" fill="none" stroke="#111" stroke-width="36" stroke-linecap="round"/>
  <path d="M232 615l-35-87-76 52" fill="none" stroke="#111" stroke-width="35" stroke-linecap="round" stroke-linejoin="round"/>
  <path d="M392 516c50-72 103-68 159 11 49 68 93 68 141-5" fill="none" stroke="#111" stroke-width="34" stroke-linecap="round"/>
  <circle cx="512" cy="544" r="78" fill="#fff" stroke="#111" stroke-width="39"/>
  <circle cx="512" cy="544" r="18" fill="#111"/>
</svg>
