<svg width="1024" height="1024" viewBox="0 0 1024 1024" xmlns="http://www.w3.org/2000/svg">
  <rect width="1024" height="1024" fill="none"/>
  <rect x="64" y="64" width="896" height="896" rx="220" fill="#fff"/>
  <rect x="64" y="64" width="896" height="896" rx="220" fill="none" stroke="#ece9e2" stroke-width="10"/>
  <ellipse cx="512" cy="826" rx="238" ry="54" fill="#000" opacity=".08"/>

  <path d="M278 358 L378 258 L478 358 Z" fill="#6d5dd3"/>
  <path d="M546 358 L646 258 L746 358 Z" fill="#6d5dd3"/>
  <path d="M318 346 L378 286 L438 346 Z" fill="#8a7bf0"/>
  <path d="M586 346 L646 286 L706 346 Z" fill="#8a7bf0"/>

  <rect x="274" y="352" width="476" height="358" rx="104" fill="#43388f"/>
  <rect x="274" y="324" width="476" height="354" rx="104" fill="#6d5dd3"/>
  <path d="M316 362 H708 C731 362 750 381 750 404 V462 C704 433 624 414 512 414 C400 414 320 433 274 462 V404 C274 381 293 362 316 362 Z" fill="#8477ea" opacity=".9"/>

  <rect x="382" y="480" width="72" height="92" rx="20" fill="#ffd65a"/>
  <rect x="570" y="480" width="72" height="92" rx="20" fill="#ffd65a"/>
  <rect x="410" y="506" width="22" height="36" rx="8" fill="#fff6bb" opacity=".72"/>
  <rect x="598" y="506" width="22" height="36" rx="8" fill="#fff6bb" opacity=".72"/>

  <rect x="490" y="588" width="44" height="24" rx="10" fill="#2b245f"/>
  <rect x="448" y="626" width="48" height="18" rx="9" fill="#2b245f"/>
  <rect x="528" y="626" width="48" height="18" rx="9" fill="#2b245f"/>

  <rect x="224" y="536" width="62" height="92" rx="28" fill="#8a7bf0"/>
  <rect x="738" y="536" width="62" height="92" rx="28" fill="#8a7bf0"/>
  <rect x="248" y="600" width="42" height="26" rx="13" fill="#43388f"/>
  <rect x="734" y="600" width="42" height="26" rx="13" fill="#43388f"/>
</svg>
